#!OML:ASF H:\Dans Jumps\Project 1\Capture day 1\Session 1\subject.ASF
:FULLY-SPECIFIED
:DEGREES
443
root 0.297349 17.7327 -6.60214 6.25253 -1.18899 -1.67575
lowerback -0.645269 0.442159 -0.544841
upperback 3.16854 0.559279 1.4269
thorax 3.59958 0.239386 1.79511
lowerneck -11.4958 0.270966 -1.68274
upperneck 34.7296 0.625926 0.652153
head 13.6485 0.141464 0.65035
rclavicle 6.80837e-015 7.7526e-015
rhumerus -16.5673 -12.7206 -82.6252
rradius 29.3014
rwrist 32.0839
rhand -20.787 -22.9521
rfingers 7.12502
rthumb 5.57998 -52.8586
lclavicle 6.80837e-015 7.7526e-015
lhumerus -14.804 -0.709357 81.3548
lradius 25.2631
lwrist 10.8274
lhand -28.2243 -6.82648
lfingers 7.12502
lthumb -1.60256 23.1472
rfemur -16.3731 -2.10749 20.1943
rtibia 22.2783
rfoot -11.6616 -1.64672
rtoes 16.4639
lfemur -14.8345 6.44088 -19.1075
ltibia 19.7111
lfoot -8.84276 8.23473
ltoes 7.6519
444
root 0.299729 17.7332 -6.60396 6.20567 -1.16936 -1.66017
lowerback -0.657501 0.440972 -0.540319
upperback 3.16238 0.557889 1.41845
thorax 3.60027 0.238997 1.78388
lowerneck -11.4708 0.258638 -1.70416
upperneck 34.7334 0.590646 0.715854
head 13.6447 0.131752 0.674267
rclavicle -5.36719e-015 -3.97569e-015
rhumerus -15.7912 -11.5486 -83.2846
rradius 29.7575
rwrist 31.518
rhand -21.0568 -22.9392
rfingers 7.12502
rthumb 5.31955 -52.8524
lclavicle -5.36719e-015 -3.97569e-015
lhumerus -13.881 -1.57619 81.726
lradius 25.2587
lwrist 10.5273
lhand -28.1338 -6.73705
lfingers 7.12502
lthumb -1.51513 23.2373
rfemur -16.3149 -2.1149 20.1691
rtibia 22.2601
rfoot -11.649 -1.6822
rtoes 16.4043
lfemur -14.7599 6.45075 -19.1288
ltibia 19.6529
lfoot -8.82262 8.19332
ltoes 7.66103
445
root 0.301847 17.7334 -6.60623 6.1608 -1.13951 -1.64605
lowerback -0.662374 0.433408 -0.539251
upperback 3.15704 0.547935 1.4146
thorax 3.59788 0.234179 1.77895
lowerneck -11.4528 0.247852 -1.72583
upperneck 34.7424 0.561229 0.769715
head 13.6447 0.123184 0.695242
rclavicle 1.2424e-015 3.97569e-016
rhumerus -15.0379 -10.3978 -83.889
rradius 30.1746
rwrist 31.0382
rhand -21.299 -22.9645
rfingers 7.12502
rthumb 5.08561 -52.8835
lclavicle 1.2424e-015 3.97569e-016
lhumerus -13.0018 -2.42196 82.0822
lradius 25.3032
lwrist 10.2958
lhand -28.0241 -6.55445
lfingers 7.12502
lthumb -1.40919 23.4206
rfemur -16.2634 -2.12137 20.1464
rtibia 22.2494
rfoot -11.6391 -1.7269
rtoes 16.3451
lfemur -14.6979 6.46196 -19.1484
ltibia 19.6081
lfoot -8.80699 8.14268
ltoes 7.66383
446
root 0.303693 17.7334 -6.60883 6.11843 -1.10122 -1.63423
lowerback -0.662384 0.418967 -0.542985
upperback 3.15392 0.52872 1.41695
thorax 3.59528 0.224494 1.78273
lowerneck -11.4478 0.240487 -1.74393
upperneck 34.7569 0.541728 0.807428
head 13.6501 0.117185 0.710707
rclavicle -5.76476e-015 -1.78906e-015
rhumerus -14.3022 -9.2631 -84.442
rradius 30.5499
rwrist 30.6308
rhand -21.5212 -22.9962
rfingers 7.12502
rthumb 4.8711 -52.9202
lclavicle -5.76476e-015 -1.78906e-015
lhumerus -12.1602 -3.24239 82.425
lradius 25.3838
lwrist 10.1359
lhand -27.9144 -6.33222
lfingers 7.12502
lthumb -1.30323 23.6435
rfemur -16.2188 -2.12422 20.1268
rtibia 22.2452
rfoot -11.6306 -1.78036
rtoes 16.2856
lfemur -14.6491 6.47356 -19.1651
ltibia 19.5772
lfoot -8.79702 8.08476
ltoes 7.66349
